<svg width="35" height="35" viewBox="0 0 35 35" fill="none" xmlns="http://www.w3.org/2000/svg">
<g clip-path="url(#clip0_648_8860)">
<path d="M29.8747 5.12531C26.5694 1.82 22.1747 0 17.5 0C12.8253 0 8.43062 1.82 5.12531 5.12531C1.82 8.43062 0 12.8253 0 17.5C0 22.1747 1.82 26.5694 5.12531 29.8747C8.43062 33.18 12.8253 35 17.5 35C22.1747 35 26.5694 33.18 29.8747 29.8747C33.18 26.5694 35 22.1747 35 17.5C35 12.8253 33.18 8.43062 29.8747 5.12531ZM30.625 17.5C30.6279 20.2254 29.7781 22.8834 28.1947 25.1016L9.89844 6.80531C12.1166 5.22187 14.7746 4.37207 17.5 4.375C24.7363 4.375 30.625 10.2637 30.625 17.5ZM4.375 17.5C4.37207 14.7746 5.22187 12.1166 6.80531 9.89844L25.1016 28.1947C22.8834 29.7781 20.2254 30.6279 17.5 30.625C10.2637 30.625 4.375 24.7363 4.375 17.5Z" fill="#E00F0F"/>
</g>
<defs>
<clipPath id="clip0_648_8860">
<rect width="35" height="35" fill="white"/>
</clipPath>
</defs>
</svg>
