<svg width="40" height="40" viewBox="0 0 40 40" fill="none" xmlns="http://www.w3.org/2000/svg">
<path d="M31.5333 10.0168C31.2 9.0335 30.2667 8.3335 29.1667 8.3335H10.8333C9.73333 8.3335 8.81667 9.0335 8.46667 10.0168L5 20.0002V33.3335C5 34.2502 5.75 35.0002 6.66667 35.0002H8.33333C9.25 35.0002 10 34.2502 10 33.3335V31.6668H30V33.3335C30 34.2502 30.75 35.0002 31.6667 35.0002H33.3333C34.25 35.0002 35 34.2502 35 33.3335V20.0002L31.5333 10.0168ZM11.4167 11.6668H28.5667L30.3667 16.8502H9.61667L11.4167 11.6668ZM31.6667 28.3335H8.33333V20.0002H31.6667V28.3335Z" fill="#3B82F6"/>
<path d="M12.5 26.6665C13.8807 26.6665 15 25.5472 15 24.1665C15 22.7858 13.8807 21.6665 12.5 21.6665C11.1193 21.6665 10 22.7858 10 24.1665C10 25.5472 11.1193 26.6665 12.5 26.6665Z" fill="#3B82F6"/>
<path d="M27.5 26.6665C28.8807 26.6665 30 25.5472 30 24.1665C30 22.7858 28.8807 21.6665 27.5 21.6665C26.1193 21.6665 25 22.7858 25 24.1665C25 25.5472 26.1193 26.6665 27.5 26.6665Z" fill="#3B82F6"/>
</svg>
