<svg width="25" height="25" viewBox="0 0 25 25" fill="none" xmlns="http://www.w3.org/2000/svg">
<path d="M19.7083 6.26058C19.5 5.646 18.9167 5.2085 18.2292 5.2085H6.77083C6.08333 5.2085 5.51042 5.646 5.29167 6.26058L3.125 12.5002V20.8335C3.125 21.4064 3.59375 21.8752 4.16667 21.8752H5.20833C5.78125 21.8752 6.25 21.4064 6.25 20.8335V19.7918H18.75V20.8335C18.75 21.4064 19.2188 21.8752 19.7917 21.8752H20.8333C21.4062 21.8752 21.875 21.4064 21.875 20.8335V12.5002L19.7083 6.26058ZM7.13542 7.29183H17.8542L18.9792 10.5314H6.01042L7.13542 7.29183ZM19.7917 17.7085H5.20833V12.5002H19.7917V17.7085Z" fill="#666666"/>
<path d="M7.8125 16.6665C8.67544 16.6665 9.375 15.9669 9.375 15.104C9.375 14.2411 8.67544 13.5415 7.8125 13.5415C6.94956 13.5415 6.25 14.2411 6.25 15.104C6.25 15.9669 6.94956 16.6665 7.8125 16.6665Z" fill="#666666"/>
<path d="M17.1875 16.6665C18.0504 16.6665 18.75 15.9669 18.75 15.104C18.75 14.2411 18.0504 13.5415 17.1875 13.5415C16.3246 13.5415 15.625 14.2411 15.625 15.104C15.625 15.9669 16.3246 16.6665 17.1875 16.6665Z" fill="#666666"/>
</svg>
