<svg width="39" height="40" viewBox="0 0 39 40" fill="none" xmlns="http://www.w3.org/2000/svg">
<rect width="39" height="40" rx="19.5" fill="black"/>
<mask id="path-2-inside-1_443_12402" fill="white">
<path d="M11.3313 8.59644H27.6419L28.245 8.67867L28.8207 8.84315L29.2593 9.03503L29.6979 9.30915L30.1365 9.66551L30.4654 10.0219L30.7122 10.3782L30.904 10.7072L31.0685 11.1184L31.233 11.694L31.6442 13.6403L31.8635 14.6545L31.8909 14.7094L32.8229 14.7368L32.7955 13.8322V13.3113L32.8503 13.1195L32.9874 12.9824L33.1519 12.9002L36.414 12.8728L37.1816 12.9002L37.346 13.0098L37.4557 13.1469L37.4831 13.2839V15.7785L37.4009 15.9978L37.2638 16.1074L36.8252 16.217L35.2078 16.4912L33.3712 16.7927H33.1519L32.9326 16.6831L32.8503 16.5734L32.8229 16.4912V15.614H32.0554L32.2747 16.4912L32.5214 17.5603L32.6585 17.6699L32.9874 17.8618L33.3712 18.1359L33.7001 18.4374L33.9743 18.7116L34.3032 19.1776L34.5225 19.5613L34.7418 20.0822L34.8789 20.6304L34.9611 21.2335L35.2078 24.0295L35.2627 24.989V29.5942L35.1804 30.1151L35.0708 30.3892L34.8789 30.6907L34.5499 31.0197L34.3032 31.1842L33.9469 31.3212L33.7276 31.376L30.6573 31.4035H29.8349L29.4512 31.3486L29.0126 31.1842L28.711 30.9923L28.4369 30.7181L28.2176 30.3344L28.1079 30.0328L28.0531 29.6765L28.0257 28.7993H10.975L10.9476 29.6491L10.8927 30.0328L10.7283 30.444L10.4541 30.8278L10.2348 31.0197L9.93329 31.2116L9.54951 31.3486L9.13832 31.4035H5.51984L5.16347 31.3486L4.77969 31.2116L4.50557 31.0471L4.23144 30.8004L4.06696 30.5811L3.90249 30.2521L3.82025 29.9232L3.79284 29.6765L3.76542 28.4155V25.2905L3.82025 24.057L4.06696 21.3157L4.1492 20.6852L4.28627 20.137L4.42333 19.7806L4.64263 19.342L4.91676 18.9309L5.16347 18.6293L5.57466 18.2181L6.06809 17.8618L6.5067 17.6151L6.58894 17.2861L6.91789 15.614L6.20516 15.6414V16.3815L6.09551 16.6282L5.90362 16.7653L5.71173 16.7927L4.53298 16.6008L2.03842 16.1896L1.68205 16.08L1.54499 15.9155L1.51758 15.8059V13.1743L1.59982 13.0372L1.81912 12.9002L2.06583 12.8728H5.60208L5.90362 12.9002L6.06809 13.0098L6.17774 13.1743L6.20516 13.6129V14.7368L7.10978 14.7094L7.24684 14.1337L7.65803 12.2149L7.87734 11.2828L8.04181 10.8717L8.2337 10.4879L8.453 10.1589L8.78196 9.77516L8.97385 9.58328L9.35762 9.28174L9.85105 8.98021L10.3993 8.76091L10.8653 8.65126L11.3313 8.59644Z"/>
</mask>
<path d="M11.3313 8.59644H27.6419L28.245 8.67867L28.8207 8.84315L29.2593 9.03503L29.6979 9.30915L30.1365 9.66551L30.4654 10.0219L30.7122 10.3782L30.904 10.7072L31.0685 11.1184L31.233 11.694L31.6442 13.6403L31.8635 14.6545L31.8909 14.7094L32.8229 14.7368L32.7955 13.8322V13.3113L32.8503 13.1195L32.9874 12.9824L33.1519 12.9002L36.414 12.8728L37.1816 12.9002L37.346 13.0098L37.4557 13.1469L37.4831 13.2839V15.7785L37.4009 15.9978L37.2638 16.1074L36.8252 16.217L35.2078 16.4912L33.3712 16.7927H33.1519L32.9326 16.6831L32.8503 16.5734L32.8229 16.4912V15.614H32.0554L32.2747 16.4912L32.5214 17.5603L32.6585 17.6699L32.9874 17.8618L33.3712 18.1359L33.7001 18.4374L33.9743 18.7116L34.3032 19.1776L34.5225 19.5613L34.7418 20.0822L34.8789 20.6304L34.9611 21.2335L35.2078 24.0295L35.2627 24.989V29.5942L35.1804 30.1151L35.0708 30.3892L34.8789 30.6907L34.5499 31.0197L34.3032 31.1842L33.9469 31.3212L33.7276 31.376L30.6573 31.4035H29.8349L29.4512 31.3486L29.0126 31.1842L28.711 30.9923L28.4369 30.7181L28.2176 30.3344L28.1079 30.0328L28.0531 29.6765L28.0257 28.7993H10.975L10.9476 29.6491L10.8927 30.0328L10.7283 30.444L10.4541 30.8278L10.2348 31.0197L9.93329 31.2116L9.54951 31.3486L9.13832 31.4035H5.51984L5.16347 31.3486L4.77969 31.2116L4.50557 31.0471L4.23144 30.8004L4.06696 30.5811L3.90249 30.2521L3.82025 29.9232L3.79284 29.6765L3.76542 28.4155V25.2905L3.82025 24.057L4.06696 21.3157L4.1492 20.6852L4.28627 20.137L4.42333 19.7806L4.64263 19.342L4.91676 18.9309L5.16347 18.6293L5.57466 18.2181L6.06809 17.8618L6.5067 17.6151L6.58894 17.2861L6.91789 15.614L6.20516 15.6414V16.3815L6.09551 16.6282L5.90362 16.7653L5.71173 16.7927L4.53298 16.6008L2.03842 16.1896L1.68205 16.08L1.54499 15.9155L1.51758 15.8059V13.1743L1.59982 13.0372L1.81912 12.9002L2.06583 12.8728H5.60208L5.90362 12.9002L6.06809 13.0098L6.17774 13.1743L6.20516 13.6129V14.7368L7.10978 14.7094L7.24684 14.1337L7.65803 12.2149L7.87734 11.2828L8.04181 10.8717L8.2337 10.4879L8.453 10.1589L8.78196 9.77516L8.97385 9.58328L9.35762 9.28174L9.85105 8.98021L10.3993 8.76091L10.8653 8.65126L11.3313 8.59644Z" fill="white" stroke="white" stroke-width="4" mask="url(#path-2-inside-1_443_12402)"/>
<path d="M31.2939 28.092L31.2285 27.9768L31.1191 27.7854L31.0537 27.6711L30.9414 27.6047L30.8047 27.5217L30.7139 27.468L30.6094 27.4543L30.3906 27.427L30.3604 27.4231H30.3311L25.0098 27.3977L24.9893 25.8879L24.9883 25.842L24.9795 25.7971L24.9248 25.5227L24.8906 25.3499L24.7549 25.2366L24.5898 25.0999L24.4619 24.9934L24.2959 24.9846L23.7754 24.9573L23.7627 24.9563H15.0645L15.041 24.9583L14.7402 24.9856L14.6318 24.9954L14.5371 25.05L14.3457 25.1594L14.2559 25.2102L14.1934 25.2932L14.1113 25.4026L14.043 25.4934L14.0205 25.6047L13.9932 25.7424L13.9834 25.7903V27.3977L8.50586 27.4231L8.41602 27.4241L8.33203 27.4553L8.11328 27.5374L7.96973 27.5911L7.88184 27.7151L7.74414 27.9065L7.65137 28.0374V28.5774L7.7168 28.6926L7.82715 28.884L7.89453 29.0022L8.0127 29.0706L8.20508 29.1799L8.31641 29.2434L8.44434 29.2454L9.57031 29.2639V29.6165L9.51562 29.7659L9.42969 29.8801L9.3252 29.9709L9.2207 30.0227L9.19824 30.0276H5.5752L5.45996 30.0012L5.38086 29.9543L5.25293 29.6985H5.18945L5.16992 29.6008V24.9905L5.22363 23.9182L5.41406 21.7542L5.49219 21.0168L5.58984 20.5754L5.7041 20.2581L5.91602 19.8586L6.15625 19.5471L6.18457 19.5149H6.37305L6.46484 19.2385L6.75293 19.0217L7.08203 18.8333L7.40625 18.6946L7.85645 18.5754L8.25977 18.5276H30.8623L31.2744 18.5959L31.6943 18.7356L32.0791 18.927L32.4131 19.1418L32.6523 19.3586L32.7656 19.4729L32.9453 19.675L33.1562 20.0032L33.3447 20.3831L33.4854 20.8284L33.5596 21.3508L33.8047 24.1301L33.8584 25.1536V29.5413L33.8262 29.7043L33.7725 29.8098L33.6934 29.9026L33.5537 29.9963L33.4727 30.0276H29.7578L29.6318 29.9817L29.4609 29.8264L29.4336 29.7786L29.375 29.4622V29.2629L30.3105 29.2454L30.3555 29.2444L30.3984 29.2356L30.6729 29.1809L30.7979 29.1565L30.8955 29.0754L31.0596 28.9377L31.1396 28.8713L31.2939 28.5627V28.092Z" fill="white" stroke="black"/>
<path d="M27.5068 9.94531L27.9004 9.99219L28.2832 10.1045L28.6553 10.291L28.918 10.459L29.1465 10.6416L29.3398 10.8359L29.543 11.1289L29.7266 11.4717L29.8721 11.957L30.1133 13.083V13.084L30.8262 16.4834L30.8271 16.4854L30.8682 16.6758H28.877L8.1123 16.6484L8.99805 12.4258L8.99707 12.4248L9.15332 11.751L9.29395 11.377L9.44922 11.0898L9.67676 10.793L9.9541 10.5146L10.1729 10.3623L10.376 10.248L10.377 10.249L10.5684 10.1523L10.8828 10.04L11.2402 9.97168L26.8486 9.94531H27.5068Z" fill="white" stroke="black"/>
<path d="M31.2744 21.2463L31.4902 21.2893L31.6279 21.3469L31.7803 21.4534L31.79 21.4612L31.917 21.6389L32.0254 21.8997L32.0723 22.1506V22.4924L32.0098 22.7717L31.8906 23.0256L31.7754 23.1663L31.6855 23.2444L31.5898 23.302L31.3574 23.3743L31.2598 23.386H27.2051L27.0166 23.345L26.8174 23.26L26.6807 23.1653L26.5479 23.0461L26.4258 22.8547L26.3418 22.6438V22.425L26.3711 22.3274L26.4326 22.2249L26.4346 22.2219L26.5068 22.1721L26.6006 22.135L27.0928 22.0168L29.0537 21.6389L31.002 21.262L31.1172 21.2463H31.2744Z" fill="black" stroke="black" stroke-width="2"/>
<path d="M8.25684 21.302L9.13184 21.4524V21.4514L11.2432 21.8577V21.8586L12.5615 22.1213L12.793 22.1926L12.8711 22.2317L12.9043 22.262L12.9609 22.3743V22.5071L12.9062 22.7219L12.7842 22.967L12.667 23.1145L12.5693 23.2112L12.3975 23.3176L12.2725 23.3625L12.1465 23.386H8.08789L7.88867 23.3547L7.67871 23.2854L7.57324 23.218L7.46973 23.1155L7.35449 22.9124L7.27539 22.7063L7.23047 22.4788V22.1741L7.27734 21.925L7.37012 21.6936L7.45312 21.5618L7.59082 21.4241L7.69336 21.3625L7.83887 21.302H8.25684Z" fill="black" stroke="black" stroke-width="2"/>
<mask id="path-7-inside-2_443_12402" fill="white">
<path d="M15.3868 26.3054H23.6106L23.638 26.3328V27.8953H19.5124H15.3868L15.3594 27.8679V26.3328L15.3868 26.3054Z"/>
</mask>
<path d="M15.3868 26.3054H23.6106L23.638 26.3328V27.8953H19.5124H15.3868L15.3594 27.8679V26.3328L15.3868 26.3054Z" fill="black"/>
<path d="M15.3868 26.3054V24.3054H14.5584L13.9726 24.8912L15.3868 26.3054ZM23.6106 26.3054L25.0248 24.8912L24.439 24.3054H23.6106V26.3054ZM23.638 26.3328H25.638V25.5044L25.0522 24.9186L23.638 26.3328ZM23.638 27.8953V29.8953H25.638V27.8953H23.638ZM15.3868 27.8953L13.9726 29.3096L14.5584 29.8953H15.3868V27.8953ZM15.3594 27.8679H13.3594V28.6964L13.9452 29.2821L15.3594 27.8679ZM15.3594 26.3328L13.9452 24.9186L13.3594 25.5044V26.3328H15.3594ZM15.3868 26.3054V28.3054H23.6106V26.3054V24.3054H15.3868V26.3054ZM23.6106 26.3054L22.1964 27.7196L22.2238 27.747L23.638 26.3328L25.0522 24.9186L25.0248 24.8912L23.6106 26.3054ZM23.638 26.3328H21.638V27.8953H23.638H25.638V26.3328H23.638ZM15.3868 27.8953L16.801 26.4811L16.7736 26.4537L15.3594 27.8679L13.9452 29.2821L13.9726 29.3096L15.3868 27.8953ZM15.3594 27.8679H17.3594V26.3328H15.3594H13.3594V27.8679H15.3594ZM15.3594 26.3328L16.7736 27.7471L16.801 27.7196L15.3868 26.3054L13.9726 24.8912L13.9452 24.9186L15.3594 26.3328ZM23.638 27.8953V25.8953H19.5124V27.8953V29.8953H23.638V27.8953ZM19.5124 27.8953V25.8953H15.3868V27.8953V29.8953H19.5124V27.8953Z" fill="black" mask="url(#path-7-inside-2_443_12402)"/>
<path d="M31.1514 22.0776L31.1797 22.0903L31.2178 22.1499L31.2441 22.2339V22.3979L31.2256 22.4585L31.1914 22.5063L31.1904 22.5083H29.0811L29.3193 22.4595L29.3262 22.4585L31.124 22.0767L31.1279 22.0757L31.1514 22.0776Z" fill="white" stroke="white" stroke-width="2"/>
<path d="M8.24609 22.1245L10.248 22.5093H8.14258L8.11328 22.4673L8.08203 22.3804V22.2612L8.10742 22.1587L8.125 22.1245H8.24609Z" fill="black" stroke="white" stroke-width="2"/>
<mask id="path-11-inside-3_443_12402" fill="white">
<path d="M33.7013 13.751H36.5522L36.5796 13.7784V15.3409L36.47 15.3957L33.811 15.8343H33.6465V13.7784L33.7013 13.751Z"/>
</mask>
<path d="M33.7013 13.751H36.5522L36.5796 13.7784V15.3409L36.47 15.3957L33.811 15.8343H33.6465V13.7784L33.7013 13.751Z" fill="white"/>
<path d="M33.7013 13.751V11.751H33.2292L32.8069 11.9621L33.7013 13.751ZM36.5522 13.751L37.9664 12.3368L37.3807 11.751H36.5522V13.751ZM36.5796 13.7784H38.5796V12.95L37.9938 12.3642L36.5796 13.7784ZM36.5796 15.3409L37.4741 17.1297L38.5796 16.577V15.3409H36.5796ZM36.47 15.3957L36.7955 17.369L37.0939 17.3198L37.3644 17.1846L36.47 15.3957ZM33.811 15.8343V17.8343H33.9748L34.1365 17.8076L33.811 15.8343ZM33.6465 15.8343H31.6465V17.8343H33.6465V15.8343ZM33.6465 13.7784L32.7521 11.9895L31.6465 12.5423V13.7784H33.6465ZM33.7013 13.751V15.751H36.5522V13.751V11.751H33.7013V13.751ZM36.5522 13.751L35.138 15.1652L35.1654 15.1926L36.5796 13.7784L37.9938 12.3642L37.9664 12.3368L36.5522 13.751ZM36.5796 13.7784H34.5796V15.3409H36.5796H38.5796V13.7784H36.5796ZM36.5796 15.3409L35.6852 13.552L35.5756 13.6069L36.47 15.3957L37.3644 17.1846L37.4741 17.1297L36.5796 15.3409ZM36.47 15.3957L36.1445 13.4224L33.4855 13.861L33.811 15.8343L34.1365 17.8076L36.7955 17.369L36.47 15.3957ZM33.811 15.8343V13.8343H33.6465V15.8343V17.8343H33.811V15.8343ZM33.6465 15.8343H35.6465V13.7784H33.6465H31.6465V15.8343H33.6465ZM33.6465 13.7784L34.5409 15.5672L34.5957 15.5398L33.7013 13.751L32.8069 11.9621L32.7521 11.9895L33.6465 13.7784Z" fill="white" mask="url(#path-11-inside-3_443_12402)"/>
<mask id="path-13-inside-4_443_12402" fill="white">
<path d="M2.99956 13.751H5.30223L5.32965 13.7784V15.8343H5.13776L3.9316 15.615L2.45131 15.3683L2.39648 15.3135V13.8058L2.4239 13.7784L2.99956 13.751Z"/>
</mask>
<path d="M2.99956 13.751H5.30223L5.32965 13.7784V15.8343H5.13776L3.9316 15.615L2.45131 15.3683L2.39648 15.3135V13.8058L2.4239 13.7784L2.99956 13.751Z" fill="black"/>
<path d="M2.99956 13.751V11.751H2.95197L2.90444 11.7532L2.99956 13.751ZM5.30223 13.751L6.71643 12.3367L6.13065 11.751H5.30223V13.751ZM5.32965 13.7784H7.32965V12.9499L6.74384 12.3642L5.32965 13.7784ZM5.32965 15.8343V17.8343H7.32965V15.8343H5.32965ZM5.13776 15.8343L4.77999 17.8021L4.95742 17.8343H5.13776V15.8343ZM3.9316 15.615L4.28936 13.6473L4.2749 13.6446L4.26039 13.6422L3.9316 15.615ZM2.45131 15.3683L1.03711 16.7825L1.49031 17.2357L2.12252 17.3411L2.45131 15.3683ZM2.39648 15.3135H0.396484V16.1419L0.982284 16.7277L2.39648 15.3135ZM2.39648 13.8058L0.982283 12.3916L0.396484 12.9774V13.8058H2.39648ZM2.4239 13.7784L2.32877 11.7807L1.55644 11.8174L1.0097 12.3642L2.4239 13.7784ZM2.99956 13.751V15.751H5.30223V13.751V11.751H2.99956V13.751ZM5.30223 13.751L3.88804 15.1652L3.91545 15.1926L5.32965 13.7784L6.74384 12.3642L6.71643 12.3367L5.30223 13.751ZM5.32965 13.7784H3.32965V15.8343H5.32965H7.32965V13.7784H5.32965ZM5.32965 15.8343V13.8343H5.13776V15.8343V17.8343H5.32965V15.8343ZM5.13776 15.8343L5.49552 13.8666L4.28936 13.6473L3.9316 15.615L3.57383 17.5828L4.77999 17.8021L5.13776 15.8343ZM3.9316 15.615L4.26039 13.6422L2.7801 13.3955L2.45131 15.3683L2.12252 17.3411L3.60281 17.5878L3.9316 15.615ZM2.45131 15.3683L3.86551 13.9541L3.81069 13.8993L2.39648 15.3135L0.982284 16.7277L1.03711 16.7825L2.45131 15.3683ZM2.39648 15.3135H4.39648V13.8058H2.39648H0.396484V15.3135H2.39648ZM2.39648 13.8058L3.81069 15.22L3.8381 15.1926L2.4239 13.7784L1.0097 12.3642L0.982283 12.3916L2.39648 13.8058ZM2.4239 13.7784L2.51903 15.7761L3.09469 15.7487L2.99956 13.751L2.90444 11.7532L2.32877 11.7807L2.4239 13.7784Z" fill="white" mask="url(#path-13-inside-4_443_12402)"/>
</svg>
