<svg width="34" height="35" viewBox="0 0 34 35" fill="none" xmlns="http://www.w3.org/2000/svg">
<path d="M0.551842 22.1407C0.183401 24.5031 1.83065 26.1429 3.8475 26.9601C11.5797 30.0933 22.34 30.0933 30.0721 26.9601C32.089 26.1429 33.7362 24.5031 33.3679 22.1407C33.1414 20.6889 32.0218 19.4799 31.1922 18.2993C30.1057 16.7341 29.9978 15.0267 29.9976 13.2103C29.9976 6.19058 24.1604 0.5 16.9598 0.5C9.75932 0.5 3.92214 6.19058 3.92214 13.2103C3.92197 15.0267 3.81401 16.7341 2.72747 18.2993C1.89795 19.4799 0.778278 20.6889 0.551842 22.1407Z" stroke="#666666" stroke-linecap="round" stroke-linejoin="round"/>
<path d="M10.0293 29.3125C10.8237 32.2362 13.6253 34.3966 16.9598 34.3966C20.2942 34.3966 23.0958 32.2362 23.8902 29.3125" stroke="#666666" stroke-linecap="round" stroke-linejoin="round"/>
</svg>
