<svg width="27" height="27" viewBox="0 0 27 27" fill="none" xmlns="http://www.w3.org/2000/svg">
<path d="M17.6668 21.3125C17.5646 23.8846 15.4211 26.0686 12.5496 25.9983C11.8815 25.982 11.0558 25.7492 9.40442 25.2833C5.43006 24.1622 1.97994 22.2782 1.15217 18.0576C1 17.282 1 16.4089 1 14.6629V12.3371C1 10.5911 1 9.71813 1.15217 8.94231C1.97994 4.72174 5.43006 2.83772 9.40442 1.71671C11.0558 1.25089 11.8815 1.01798 12.5496 1.00165C15.4211 0.931399 17.5646 3.11537 17.6668 5.68751" stroke="#666666" stroke-width="2" stroke-linecap="round"/>
<path d="M26.0006 13.501H10.7227M26.0006 13.501C26.0006 12.5285 23.2307 10.7115 22.5283 10.0288M26.0006 13.501C26.0006 14.4735 23.2307 16.2906 22.5283 16.9733" stroke="#666666" stroke-width="2" stroke-linecap="round" stroke-linejoin="round"/>
</svg>
