<svg width="25" height="25" viewBox="0 0 25 25" fill="none" xmlns="http://www.w3.org/2000/svg">
<path d="M14.5827 2.0835H6.24935C5.10352 2.0835 4.16602 3.021 4.16602 4.16683V20.8335C4.16602 21.9793 5.10352 22.9168 6.24935 22.9168H18.7493C19.8952 22.9168 20.8327 21.9793 20.8327 20.8335V8.3335L14.5827 2.0835ZM6.24935 20.8335V4.16683H13.541V8.3335H18.7493V20.8335H6.24935ZM11.4577 19.7918H13.541V18.7502H14.5827C15.1556 18.7502 15.6243 18.2814 15.6243 17.7085V14.5835C15.6243 14.0106 15.1556 13.5418 14.5827 13.5418H11.4577V12.5002H15.6243V10.4168H13.541V9.37516H11.4577V10.4168H10.416C9.8431 10.4168 9.37435 10.8856 9.37435 11.4585V14.5835C9.37435 15.1564 9.8431 15.6252 10.416 15.6252H13.541V16.6668H9.37435V18.7502H11.4577V19.7918Z" fill="#666666"/>
</svg>
