<svg width="37" height="37" viewBox="0 0 37 37" fill="none" xmlns="http://www.w3.org/2000/svg">
<path d="M11.5509 26.3223C12.0332 26.3223 12.4241 25.9314 12.4241 25.4491C12.4241 24.9669 12.0332 24.5759 11.5509 24.5759C11.0687 24.5759 10.6777 24.9669 10.6777 25.4491C10.6777 25.9314 11.0687 26.3223 11.5509 26.3223Z" stroke="#3B82F6" stroke-width="2" stroke-linecap="round" stroke-linejoin="round"/>
<path d="M29.0146 1H36V9.73181H30.7609V14.9709H25.5218V18.4636L21.5052 22.4803C22.1833 24.7156 22.0949 27.1135 21.2542 29.2929C20.4135 31.4723 18.8686 33.3084 16.865 34.5093C14.8614 35.7102 12.5139 36.2071 10.1955 35.9212C7.87713 35.6352 5.72077 34.5828 4.069 32.931C2.41723 31.2792 1.36477 29.1229 1.07882 26.8045C0.792868 24.4861 1.28982 22.1386 2.49074 20.135C3.69165 18.1314 5.52765 16.5865 7.70708 15.7458C9.88651 14.9051 12.2844 14.8167 14.5198 15.4948L29.0146 1Z" stroke="#3B82F6" stroke-width="2" stroke-linecap="round" stroke-linejoin="round"/>
</svg>
