<svg width="45" height="45" viewBox="0 0 45 45" fill="none" xmlns="http://www.w3.org/2000/svg">
<rect x="0.5" y="0.5" width="44" height="44" rx="22" fill="#F8F8F8"/>
<rect x="0.5" y="0.5" width="44" height="44" rx="22" stroke="#D7D7D7"/>
<path d="M13.2966 27.8972C10.8954 29.2028 4.59961 31.8688 8.43416 35.205C10.3073 36.8346 12.3935 38.0001 15.0164 38.0001H29.9829C32.6058 38.0001 34.6921 36.8346 36.5651 35.205C40.3997 31.8688 34.104 29.2028 31.7027 27.8972C26.072 24.8354 18.9273 24.8354 13.2966 27.8972Z" stroke="#666666" stroke-width="1.5" stroke-linecap="round" stroke-linejoin="round"/>
<path d="M30.1364 13.9746C30.1364 17.8265 26.717 20.9491 22.4989 20.9491C18.2808 20.9491 14.8613 17.8265 14.8613 13.9746C14.8613 10.1226 18.2808 7 22.4989 7C26.717 7 30.1364 10.1226 30.1364 13.9746Z" stroke="#666666" stroke-width="1.5"/>
</svg>
