<svg width="35" height="35" viewBox="0 0 35 35" fill="none" xmlns="http://www.w3.org/2000/svg">
<path d="M19.2115 17.8868V11.3329C19.2115 10.8171 19.0472 10.385 18.7186 10.0367C18.39 9.68833 17.9838 9.51356 17.5 9.51234C17.0162 9.51113 16.61 9.6859 16.2814 10.0367C15.9528 10.3874 15.7885 10.8195 15.7885 11.3329V18.5696C15.7885 18.8123 15.8313 19.0477 15.9169 19.2759C16.0024 19.5041 16.1308 19.7086 16.302 19.8894L21.0941 24.987C21.4079 25.3207 21.8073 25.4876 22.2922 25.4876C22.7771 25.4876 23.1764 25.3207 23.4902 24.987C23.804 24.6532 23.9609 24.2284 23.9609 23.7126C23.9609 23.1968 23.804 22.772 23.4902 22.4382L19.2115 17.8868ZM17.5 35C15.3606 35 13.357 34.5679 11.4892 33.7037C9.62143 32.8396 7.99552 31.6714 6.61149 30.1992C5.22746 28.727 4.12926 26.9975 3.31687 25.0106C2.50448 23.0238 2.09772 20.892 2.09658 18.6151C2.09544 16.3382 2.5022 14.2069 3.31687 12.2213C4.13154 10.2357 5.22918 8.50619 6.60978 7.03276C7.99038 5.55933 9.6163 4.39115 11.4875 3.52821C13.3588 2.66528 15.3629 2.23259 17.5 2.23017C19.6371 2.22774 21.6412 2.66042 23.5125 3.52821C25.3837 4.39601 27.0096 5.56419 28.3902 7.03276C29.7708 8.50133 30.869 10.2309 31.6848 12.2213C32.5007 14.2118 32.9068 16.343 32.9034 18.6151C32.9 20.8871 32.4938 23.019 31.6848 25.0106C30.8759 27.0023 29.7777 28.7318 28.3902 30.1992C27.0028 31.6665 25.3769 32.8347 23.5125 33.7037C21.6481 34.5727 19.6439 35.0048 17.5 35ZM0.47066 8.23796C0.156887 7.9042 0 7.4794 0 6.96358C0 6.44776 0.156887 6.02297 0.47066 5.6892L5.34841 0.500649C5.66218 0.166883 6.06153 0 6.54645 0C7.03138 0 7.43073 0.166883 7.7445 0.500649C8.05827 0.834416 8.21516 1.25921 8.21516 1.77503C8.21516 2.29085 8.05827 2.71564 7.7445 3.04941L2.86675 8.23796C2.55297 8.57173 2.15363 8.73861 1.6687 8.73861C1.18378 8.73861 0.784433 8.57173 0.47066 8.23796ZM34.5293 8.23796C34.2156 8.57173 33.8162 8.73861 33.3313 8.73861C32.8464 8.73861 32.447 8.57173 32.1332 8.23796L27.2555 3.04941C26.9417 2.71564 26.7848 2.29085 26.7848 1.77503C26.7848 1.25921 26.9417 0.834416 27.2555 0.500649C27.5693 0.166883 27.9686 0 28.4535 0C28.9385 0 29.3378 0.166883 29.6516 0.500649L34.5293 5.6892C34.8431 6.02297 35 6.44776 35 6.96358C35 7.4794 34.8431 7.9042 34.5293 8.23796ZM17.5 31.3589C20.8374 31.3589 23.6688 30.1227 25.9941 27.6504C28.3195 25.1781 29.4816 22.1663 29.4804 18.6151C29.4793 15.0638 28.3172 12.0526 25.9941 9.58152C23.6711 7.11044 20.8397 5.87368 17.5 5.87125C14.1603 5.86883 11.3295 7.10558 9.00758 9.58152C6.68566 12.0575 5.52298 15.0686 5.51956 18.6151C5.51614 22.1615 6.67881 25.1733 9.00758 27.6504C11.3363 30.1276 14.1672 31.3637 17.5 31.3589Z" fill="#3B82F6"/>
</svg>
