<svg width="40" height="40" viewBox="0 0 40 40" fill="none" xmlns="http://www.w3.org/2000/svg">
<path d="M19.9831 3.3335C10.7831 3.3335 3.31641 10.8002 3.31641 20.0002C3.31641 29.2002 10.7831 36.6668 19.9831 36.6668C29.1831 36.6668 36.6497 29.2002 36.6497 20.0002C36.6497 10.8002 29.1831 3.3335 19.9831 3.3335ZM25.9997 13.9002C27.7831 13.9002 29.2164 15.3335 29.2164 17.1168C29.2164 18.9002 27.7831 20.3335 25.9997 20.3335C24.2164 20.3335 22.7831 18.9002 22.7831 17.1168C22.7664 15.3335 24.2164 13.9002 25.9997 13.9002ZM15.9997 11.2668C18.1664 11.2668 19.9331 13.0335 19.9331 15.2002C19.9331 17.3668 18.1664 19.1335 15.9997 19.1335C13.8331 19.1335 12.0664 17.3668 12.0664 15.2002C12.0664 13.0168 13.8164 11.2668 15.9997 11.2668ZM15.9997 26.4835V32.7335C11.9997 31.4835 8.83307 28.4002 7.43307 24.4668C9.18307 22.6002 13.5497 21.6502 15.9997 21.6502C16.8831 21.6502 17.9997 21.7835 19.1664 22.0168C16.4331 23.4668 15.9997 25.3835 15.9997 26.4835ZM19.9831 33.3335C19.5331 33.3335 19.0997 33.3168 18.6664 33.2668V26.4835C18.6664 24.1168 23.5664 22.9335 25.9997 22.9335C27.7831 22.9335 30.8664 23.5835 32.3997 24.8502C30.4497 29.8002 25.6331 33.3335 19.9831 33.3335Z" fill="#3B82F6"/>
</svg>
