<svg width="25" height="25" viewBox="0 0 25 25" fill="none" xmlns="http://www.w3.org/2000/svg">
<path d="M12.4889 2.08325C6.73893 2.08325 2.07227 6.74992 2.07227 12.4999C2.07227 18.2499 6.73893 22.9166 12.4889 22.9166C18.2389 22.9166 22.9056 18.2499 22.9056 12.4999C22.9056 6.74992 18.2389 2.08325 12.4889 2.08325ZM16.2494 8.68742C17.3639 8.68742 18.2598 9.58325 18.2598 10.6978C18.2598 11.8124 17.3639 12.7083 16.2494 12.7083C15.1348 12.7083 14.2389 11.8124 14.2389 10.6978C14.2285 9.58325 15.1348 8.68742 16.2494 8.68742ZM9.99935 7.04159C11.3535 7.04159 12.4577 8.14575 12.4577 9.49992C12.4577 10.8541 11.3535 11.9583 9.99935 11.9583C8.64518 11.9583 7.54102 10.8541 7.54102 9.49992C7.54102 8.13534 8.63477 7.04159 9.99935 7.04159ZM9.99935 16.552V20.4583C7.49935 19.677 5.52018 17.7499 4.64518 15.2916C5.73893 14.1249 8.4681 13.5312 9.99935 13.5312C10.5514 13.5312 11.2493 13.6145 11.9785 13.7603C10.2702 14.6666 9.99935 15.8645 9.99935 16.552ZM12.4889 20.8333C12.2077 20.8333 11.9368 20.8228 11.666 20.7916V16.552C11.666 15.0728 14.7285 14.3333 16.2494 14.3333C17.3639 14.3333 19.291 14.7395 20.2494 15.5312C19.0306 18.6249 16.0202 20.8333 12.4889 20.8333Z" fill="#666666"/>
</svg>
