<svg width="35" height="35" viewBox="0 0 35 35" fill="none" xmlns="http://www.w3.org/2000/svg">
<path d="M27.7184 21.6511C27.6994 21.5992 27.6697 21.553 27.6318 21.5162C27.5938 21.4794 27.5487 21.4532 27.5 21.4395C25.9709 20.8534 19.6941 12.7465 19.6941 7.32557V6.49534C19.6941 6.21859 19.8107 5.69766 19.3446 5.69766H17.5242C17.4277 5.69766 17.3351 5.74054 17.2668 5.81686C17.1985 5.89319 17.1602 5.9967 17.1602 6.10464V10.5814C17.1602 10.9052 17.0451 11.2157 16.8403 11.4447C16.6354 11.6737 16.3576 11.8023 16.0679 11.8023C15.7782 11.8023 15.5004 11.6737 15.2956 11.4447C15.0908 11.2157 14.9757 10.9052 14.9757 10.5814V6.10464C14.9757 5.9967 14.9373 5.89319 14.8691 5.81686C14.8008 5.74054 14.7082 5.69766 14.6116 5.69766H10.5048C10.3594 5.69977 10.2178 5.75052 10.0984 5.84337C9.97904 5.93621 9.88726 6.0669 9.83491 6.21859L0.0484835 33.893C0.00525172 34.0159 -0.00940862 34.149 0.00587176 34.28C0.0211521 34.4109 0.0658747 34.5354 0.135862 34.6418C0.200059 34.7532 0.28854 34.8445 0.39299 34.9071C0.497439 34.9698 0.614425 35.0017 0.732951 34.9999H14.6116C14.7082 34.9999 14.8008 34.9571 14.8691 34.8807C14.9373 34.8044 14.9757 34.7009 14.9757 34.593V30.1162C14.9757 29.7924 15.0908 29.4819 15.2956 29.2529C15.5004 29.0239 15.7782 28.8953 16.0679 28.8953C16.3576 28.8953 16.6354 29.0239 16.8403 29.2529C17.0451 29.4819 17.1602 29.7924 17.1602 30.1162V34.593C17.1602 34.7009 17.1985 34.8044 17.2668 34.8807C17.3351 34.9571 17.4277 34.9999 17.5242 34.9999H31.3592C31.4775 35.0002 31.594 34.9677 31.6982 34.9051C31.8024 34.8426 31.8911 34.7521 31.9563 34.6418C32.0263 34.5354 32.071 34.4109 32.0863 34.28C32.1016 34.149 32.0869 34.0159 32.0437 33.893L27.7184 21.6511ZM17.1456 23.6046C17.1456 23.9284 17.0305 24.239 16.8257 24.4679C16.6209 24.6969 16.343 24.8255 16.0534 24.8255C15.7637 24.8255 15.4859 24.6969 15.281 24.4679C15.0762 24.239 14.9611 23.9284 14.9611 23.6046V17.093C14.9611 16.7692 15.0762 16.4586 15.281 16.2297C15.4859 16.0007 15.7637 15.8721 16.0534 15.8721C16.343 15.8721 16.6209 16.0007 16.8257 16.2297C17.0305 16.4586 17.1456 16.7692 17.1456 17.093V23.6046ZM28.9709 18.9162C30.5437 17.0442 35 11.3628 35 7.32557C35 5.38271 34.3096 3.51942 33.0806 2.14561C31.8515 0.771798 30.1847 0 28.4466 0C26.7085 0 25.0416 0.771798 23.8126 2.14561C22.5836 3.51942 21.8932 5.38271 21.8932 7.32557C21.8932 11.3628 26.3495 17.093 27.9223 18.9162C27.9891 18.9971 28.0702 19.0617 28.1604 19.1058C28.2507 19.15 28.3481 19.1728 28.4466 19.1728C28.5451 19.1728 28.6425 19.15 28.7327 19.1058C28.823 19.0617 28.904 18.9971 28.9709 18.9162ZM26.2621 7.32557C26.2621 6.84261 26.3902 6.37051 26.6303 5.96894C26.8703 5.56738 27.2115 5.2544 27.6106 5.06959C28.0098 4.88477 28.449 4.83641 28.8728 4.93063C29.2965 5.02485 29.6857 5.25741 29.9912 5.59891C30.2967 5.94041 30.5048 6.37551 30.5891 6.84918C30.6734 7.32286 30.6301 7.81383 30.4648 8.26002C30.2994 8.70622 30.0195 9.08758 29.6602 9.3559C29.301 9.62421 28.8786 9.76742 28.4466 9.76742C27.8672 9.76742 27.3116 9.51016 26.9019 9.05222C26.4923 8.59428 26.2621 7.97319 26.2621 7.32557Z" fill="#3B82F6"/>
</svg>
